<?xml version="1.0" encoding="UTF-8" standalone="no"?>
<svg
   xmlns:dc="http://purl.org/dc/elements/1.1/"
   xmlns:cc="http://creativecommons.org/ns#"
   xmlns:rdf="http://www.w3.org/1999/02/22-rdf-syntax-ns#"
   xmlns:svg="http://www.w3.org/2000/svg"
   xmlns="http://www.w3.org/2000/svg"
   viewBox="0 0 264.02399 264.05682"
   height="264.05682"
   width="264.02399"
   xml:space="preserve"
   id="svg3713"
   version="1.1"><metadata
     id="metadata3719"><rdf:RDF><cc:Work
         rdf:about=""><dc:format>image/svg+xml</dc:format><dc:type
           rdf:resource="http://purl.org/dc/dcmitype/StillImage" /><dc:title></dc:title></cc:Work></rdf:RDF></metadata><defs
     id="defs3717"><radialGradient
       id="radialGradient3741"
       spreadMethod="pad"
       gradientTransform="matrix(341.47501,0,0,-341.47501,250,250)"
       gradientUnits="userSpaceOnUse"
       r="1"
       cy="0"
       cx="0"
       fy="0"
       fx="0"><stop
         id="stop3735"
         offset="0"
         style="stop-opacity:1;stop-color:#ffffff" /><stop
         id="stop3737"
         offset="0.59458528"
         style="stop-opacity:1;stop-color:#ffffff" /><stop
         id="stop3739"
         offset="1"
         style="stop-opacity:1;stop-color:#cecdce" /></radialGradient><radialGradient
       id="radialGradient3763"
       spreadMethod="pad"
       gradientTransform="matrix(20.865448,0,0,-20.865448,249.99954,261.81354)"
       gradientUnits="userSpaceOnUse"
       r="1"
       cy="0"
       cx="0"
       fy="0"
       fx="0"><stop
         id="stop3757"
         offset="0"
         style="stop-opacity:1;stop-color:#402f3f" /><stop
         id="stop3759"
         offset="0.20585759"
         style="stop-opacity:1;stop-color:#402f3f" /><stop
         id="stop3761"
         offset="1"
         style="stop-opacity:1;stop-color:#271826" /></radialGradient><radialGradient
       id="radialGradient3785"
       spreadMethod="pad"
       gradientTransform="matrix(48.107849,0,0,-48.107849,249.9998,206.39575)"
       gradientUnits="userSpaceOnUse"
       r="1"
       cy="0"
       cx="0"
       fy="0"
       fx="0"><stop
         id="stop3779"
         offset="0"
         style="stop-opacity:1;stop-color:#402f3f" /><stop
         id="stop3781"
         offset="0.20585759"
         style="stop-opacity:1;stop-color:#402f3f" /><stop
         id="stop3783"
         offset="1"
         style="stop-opacity:1;stop-color:#271826" /></radialGradient><radialGradient
       id="radialGradient3807"
       spreadMethod="pad"
       gradientTransform="matrix(14.000465,0,0,-14.000465,279.63367,281.37991)"
       gradientUnits="userSpaceOnUse"
       r="1"
       cy="0"
       cx="0"
       fy="0"
       fx="0"><stop
         id="stop3801"
         offset="0"
         style="stop-opacity:1;stop-color:#402f3f" /><stop
         id="stop3803"
         offset="0.20585759"
         style="stop-opacity:1;stop-color:#402f3f" /><stop
         id="stop3805"
         offset="1"
         style="stop-opacity:1;stop-color:#271826" /></radialGradient><radialGradient
       id="radialGradient3829"
       spreadMethod="pad"
       gradientTransform="matrix(26.579943,0,0,-26.579943,320.63428,281.48422)"
       gradientUnits="userSpaceOnUse"
       r="1"
       cy="0"
       cx="0"
       fy="0"
       fx="0"><stop
         id="stop3823"
         offset="0"
         style="stop-opacity:1;stop-color:#402f3f" /><stop
         id="stop3825"
         offset="0.20585759"
         style="stop-opacity:1;stop-color:#402f3f" /><stop
         id="stop3827"
         offset="1"
         style="stop-opacity:1;stop-color:#271826" /></radialGradient><radialGradient
       id="radialGradient3851"
       spreadMethod="pad"
       gradientTransform="matrix(34.652454,0,0,-34.652454,320.63428,224.26939)"
       gradientUnits="userSpaceOnUse"
       r="1"
       cy="0"
       cx="0"
       fy="0"
       fx="0"><stop
         id="stop3845"
         offset="0"
         style="stop-opacity:1;stop-color:#402f3f" /><stop
         id="stop3847"
         offset="0.20585759"
         style="stop-opacity:1;stop-color:#402f3f" /><stop
         id="stop3849"
         offset="1"
         style="stop-opacity:1;stop-color:#271826" /></radialGradient><radialGradient
       id="radialGradient3873"
       spreadMethod="pad"
       gradientTransform="matrix(37.367184,0,0,-37.367184,293.24454,199.55811)"
       gradientUnits="userSpaceOnUse"
       r="1"
       cy="0"
       cx="0"
       fy="0"
       fx="0"><stop
         id="stop3867"
         offset="0"
         style="stop-opacity:1;stop-color:#402f3f" /><stop
         id="stop3869"
         offset="0.20585759"
         style="stop-opacity:1;stop-color:#402f3f" /><stop
         id="stop3871"
         offset="1"
         style="stop-opacity:1;stop-color:#271826" /></radialGradient><radialGradient
       id="radialGradient3895"
       spreadMethod="pad"
       gradientTransform="matrix(59.544987,0,0,-59.544987,250,320.43274)"
       gradientUnits="userSpaceOnUse"
       r="1"
       cy="0"
       cx="0"
       fy="0"
       fx="0"><stop
         id="stop3889"
         offset="0"
         style="stop-opacity:1;stop-color:#402f3f" /><stop
         id="stop3891"
         offset="0.20585759"
         style="stop-opacity:1;stop-color:#402f3f" /><stop
         id="stop3893"
         offset="1"
         style="stop-opacity:1;stop-color:#271826" /></radialGradient><radialGradient
       id="radialGradient3917"
       spreadMethod="pad"
       gradientTransform="matrix(14.000501,0,0,-14.000501,220.36621,281.37991)"
       gradientUnits="userSpaceOnUse"
       r="1"
       cy="0"
       cx="0"
       fy="0"
       fx="0"><stop
         id="stop3911"
         offset="0"
         style="stop-opacity:1;stop-color:#402f3f" /><stop
         id="stop3913"
         offset="0.20585759"
         style="stop-opacity:1;stop-color:#402f3f" /><stop
         id="stop3915"
         offset="1"
         style="stop-opacity:1;stop-color:#271826" /></radialGradient><radialGradient
       id="radialGradient3939"
       spreadMethod="pad"
       gradientTransform="matrix(26.579943,0,0,-26.579943,179.36569,281.48422)"
       gradientUnits="userSpaceOnUse"
       r="1"
       cy="0"
       cx="0"
       fy="0"
       fx="0"><stop
         id="stop3933"
         offset="0"
         style="stop-opacity:1;stop-color:#402f3f" /><stop
         id="stop3935"
         offset="0.20585759"
         style="stop-opacity:1;stop-color:#402f3f" /><stop
         id="stop3937"
         offset="1"
         style="stop-opacity:1;stop-color:#271826" /></radialGradient><radialGradient
       id="radialGradient3961"
       spreadMethod="pad"
       gradientTransform="matrix(34.652454,0,0,-34.652454,179.36569,224.26939)"
       gradientUnits="userSpaceOnUse"
       r="1"
       cy="0"
       cx="0"
       fy="0"
       fx="0"><stop
         id="stop3955"
         offset="0"
         style="stop-opacity:1;stop-color:#402f3f" /><stop
         id="stop3957"
         offset="0.20585759"
         style="stop-opacity:1;stop-color:#402f3f" /><stop
         id="stop3959"
         offset="1"
         style="stop-opacity:1;stop-color:#271826" /></radialGradient><radialGradient
       id="radialGradient3983"
       spreadMethod="pad"
       gradientTransform="matrix(37.367184,0,0,-37.367184,206.75546,199.55811)"
       gradientUnits="userSpaceOnUse"
       r="1"
       cy="0"
       cx="0"
       fy="0"
       fx="0"><stop
         id="stop3977"
         offset="0"
         style="stop-opacity:1;stop-color:#402f3f" /><stop
         id="stop3979"
         offset="0.20585759"
         style="stop-opacity:1;stop-color:#402f3f" /><stop
         id="stop3981"
         offset="1"
         style="stop-opacity:1;stop-color:#271826" /></radialGradient></defs><g
     transform="matrix(1.3333333,0,0,-1.3333333,-201.32133,465.36214)"
     id="g3721"><g
       id="g3723" /><g
       id="g3745"><g
         id="g3747"><g
           id="g3753"><g
             id="g3755"><path
               id="path3765"
               style="fill:url(#radialGradient3763);stroke:none"
               d="m 250,285.404 c -12.074,2.013 -17.307,-6.44 -17.307,-6.44 v 0 c 7.245,-3.22 5.153,-11.387 2.186,-22.105 v 0 C 231.083,243.145 250,237.913 250,237.913 v 0 c 0,0 18.917,5.232 15.121,18.946 v 0 c -2.966,10.718 -5.06,18.885 2.184,22.105 v 0 c 0,0 -4.177,6.75 -13.682,6.75 v 0 c -1.131,0 -2.338,-0.096 -3.623,-0.31" /></g></g></g></g><g
       id="g3767"><g
         id="g3769"><g
           id="g3775"><g
             id="g3777"><path
               id="path3787"
               style="fill:url(#radialGradient3785);stroke:none"
               d="M 262.075,237.913 C 250.805,234.692 250,224.23 250,224.23 v 0 c 0,0 -0.805,10.462 -12.074,13.683 v 0 c -11.27,3.219 -21.733,17.213 -20.929,23.9 v 0 c 0,0 -12.074,-20.681 -3.22,-38.791 v 0 c 8.854,-18.113 15.673,-15.698 16.489,-29.382 v 0 c 0.817,-13.683 7.257,-38.233 19.734,-42.661 v 0 c 12.478,4.428 18.917,28.978 19.734,42.661 v 0 c 0.817,13.684 7.634,11.269 16.489,29.382 v 0 c 8.853,18.11 -3.22,38.791 -3.22,38.791 v 0 c 0.804,-6.687 -9.66,-20.681 -20.928,-23.9 m 13.281,-3.221 c 0,0 -1.208,-12.073 -13.281,-15.293 v 0 c 0,0 3.219,14.489 13.281,15.293 m -50.712,0 c 10.061,-0.804 13.282,-15.293 13.282,-15.293 v 0 c -12.075,3.22 -13.282,15.293 -13.282,15.293" /></g></g></g></g><g
       id="g3789"><g
         id="g3791"><g
           id="g3797"><g
             id="g3799"><path
               id="path3809"
               style="fill:url(#radialGradient3807);stroke:none"
               d="m 271.733,263.671 c 21.734,8.451 16.099,35.418 16.099,35.418 v 0 c -22.94,-8.854 -16.099,-35.418 -16.099,-35.418" /></g></g></g></g><g
       id="g3811"><g
         id="g3813"><g
           id="g3819"><g
             id="g3821"><path
               id="path3831"
               style="fill:url(#radialGradient3829);stroke:none"
               d="m 295.48,304.321 c 10.063,-13.685 -3.22,-33.808 -3.22,-33.808 v 0 c 32.6,8.049 56.749,-13.684 56.749,-13.684 v 0 c -5.344,42.213 -27.184,49.31 -41.262,49.311 v 0 c -7.13,0 -12.267,-1.819 -12.267,-1.819" /></g></g></g></g><g
       id="g3833"><g
         id="g3835"><g
           id="g3841"><g
             id="g3843"><path
               id="path3853"
               style="fill:url(#radialGradient3851);stroke:none"
               d="m 292.26,263.671 c 44.272,-29.783 31.824,-79.357 31.824,-79.357 v 0 c 24.58,28.103 24.925,57.623 24.925,57.623 v 0 c -12.903,19.356 -35.387,22.288 -47.829,22.289 v 0 c -5.41,0 -8.92,-0.555 -8.92,-0.555" /></g></g></g></g><g
       id="g3855"><g
         id="g3857"><g
           id="g3863"><g
             id="g3865"><path
               id="path3875"
               style="fill:url(#radialGradient3873);stroke:none"
               d="M 292.26,214.166 C 280.991,202.494 280.691,201.69 279.634,189.617 v 0 c -1.058,-12.075 3.369,-24.63 -10.919,-36.866 v 0 c 0,0 44.849,7.837 48.499,37.669 v 0 c 4.628,37.833 -20.93,55.945 -20.93,55.945 v 0 c 0,0 7.245,-20.526 -4.024,-32.199" /></g></g></g></g><g
       id="g3877"><g
         id="g3879"><g
           id="g3885"><g
             id="g3887"><path
               id="path3897"
               style="fill:url(#radialGradient3895);stroke:none"
               d="m 250,348.996 c 0,0 -51.919,2.413 -79.208,-39.599 v 0 c 0,0 21.655,14.645 37.753,1.766 v 0 c 16.099,-12.88 21.733,-19.319 41.455,-19.319 v 0 c 19.722,0 25.356,6.439 41.454,19.319 v 0 c 16.098,12.879 37.754,-1.766 37.754,-1.766 v 0 c -24.476,37.681 -68.766,39.624 -77.637,39.624 v 0 c -1.02,0 -1.571,-0.025 -1.571,-0.025" /></g></g></g></g><g
       id="g3899"><g
         id="g3901"><g
           id="g3907"><g
             id="g3909"><path
               id="path3919"
               style="fill:url(#radialGradient3917);stroke:none"
               d="m 228.267,263.671 c 0,0 6.842,26.564 -16.099,35.418 v 0 c 0,0 -5.636,-26.967 16.099,-35.418" /></g></g></g></g><g
       id="g3921"><g
         id="g3923"><g
           id="g3929"><g
             id="g3931"><path
               id="path3941"
               style="fill:url(#radialGradient3939);stroke:none"
               d="m 150.991,256.829 c 0,0 24.149,21.733 56.749,13.684 v 0 c 0,0 -13.283,20.123 -3.22,33.808 v 0 c 0,0 -5.14,1.818 -12.267,1.819 v 0 c -14.079,0 -35.918,-7.094 -41.262,-49.311" /></g></g></g></g><g
       id="g3943"><g
         id="g3945"><g
           id="g3951"><g
             id="g3953"><path
               id="path3963"
               style="fill:url(#radialGradient3961);stroke:none"
               d="m 150.991,241.937 c 0,0 0.345,-29.52 24.925,-57.623 v 0 c 0,0 -12.447,49.574 31.824,79.357 v 0 c 0,0 -3.513,0.554 -8.92,0.555 v 0 c -12.441,0 -34.924,-2.932 -47.829,-22.289" /></g></g></g></g><g
       id="g3965"><g
         id="g3967"><g
           id="g3973"><g
             id="g3975"><path
               id="path3985"
               style="fill:url(#radialGradient3983);stroke:none"
               d="m 182.786,190.42 c 3.65,-29.832 48.5,-37.669 48.5,-37.669 v 0 c -14.289,12.236 -9.863,24.791 -10.92,36.866 v 0 c -1.058,12.073 -1.357,12.877 -12.626,24.549 v 0 c -11.269,11.673 -4.024,32.199 -4.024,32.199 v 0 c 0,0 -25.557,-18.112 -20.93,-55.945" /></g></g></g></g></g></svg>